<?xml version="1.0" encoding="utf-8" standalone="no"?>
<!DOCTYPE svg PUBLIC "-//W3C//DTD SVG 1.1//EN"
  "http://www.w3.org/Graphics/SVG/1.1/DTD/svg11.dtd">
<svg xmlns:xlink="http://www.w3.org/1999/xlink" width="766.189062pt" height="408.9575pt" viewBox="0 0 766.189062 408.9575" xmlns="http://www.w3.org/2000/svg" version="1.1">
 <metadata>
  <rdf:RDF xmlns:dc="http://purl.org/dc/elements/1.1/" xmlns:cc="http://creativecommons.org/ns#" xmlns:rdf="http://www.w3.org/1999/02/22-rdf-syntax-ns#">
   <cc:Work>
    <dc:type rdf:resource="http://purl.org/dc/dcmitype/StillImage"/>
    <dc:date>2026-05-21T16:36:37.214183</dc:date>
    <dc:format>image/svg+xml</dc:format>
    <dc:creator>
     <cc:Agent>
      <dc:title>Matplotlib v3.5.1, https://matplotlib.org/</dc:title>
     </cc:Agent>
    </dc:creator>
   </cc:Work>
  </rdf:RDF>
 </metadata>
 <defs>
  <style type="text/css">*{stroke-linejoin: round; stroke-linecap: butt}</style>
 </defs>
 <g id="figure_1">
  <g id="patch_1">
   <path d="M 0 408.9575 
L 766.189062 408.9575 
L 766.189062 0 
L 0 0 
z
" style="fill: #ffffff"/>
  </g>
  <g id="axes_1">
   <g id="patch_2">
    <path d="M 44.749063 345.389812 
L 369.403608 345.389812 
L 369.403608 23.837812 
L 44.749063 23.837812 
z
" style="fill: #f8f8f6"/>
   </g>
   <g id="matplotlib.axis_1">
    <g id="xtick_1">
     <g id="line2d_1">
      <defs>
       <path id="m53b56d4333" d="M 0 0 
L 0 3.5 
" style="stroke: #000000; stroke-width: 0.8"/>
      </defs>
      <g>
       <use xlink:href="#m53b56d4333" x="59.506087" y="345.389812" style="stroke: #000000; stroke-width: 0.8"/>
      </g>
     </g>
     <g id="text_1">
      <!-- 1 -->
      <g transform="translate(56.324837 359.98825)scale(0.1 -0.1)">
       <defs>
        <path id="DejaVuSans-31" d="M 794 531 
L 1825 531 
L 1825 4091 
L 703 3866 
L 703 4441 
L 1819 4666 
L 2450 4666 
L 2450 531 
L 3481 531 
L 3481 0 
L 794 0 
L 794 531 
z
" transform="scale(0.015625)"/>
       </defs>
       <use xlink:href="#DejaVuSans-31"/>
      </g>
     </g>
    </g>
    <g id="xtick_2">
     <g id="line2d_2">
      <g>
       <use xlink:href="#m53b56d4333" x="118.534186" y="345.389812" style="stroke: #000000; stroke-width: 0.8"/>
      </g>
     </g>
     <g id="text_2">
      <!-- 4 -->
      <g transform="translate(115.352936 359.98825)scale(0.1 -0.1)">
       <defs>
        <path id="DejaVuSans-34" d="M 2419 4116 
L 825 1625 
L 2419 1625 
L 2419 4116 
z
M 2253 4666 
L 3047 4666 
L 3047 1625 
L 3713 1625 
L 3713 1100 
L 3047 1100 
L 3047 0 
L 2419 0 
L 2419 1100 
L 313 1100 
L 313 1709 
L 2253 4666 
z
" transform="scale(0.015625)"/>
       </defs>
       <use xlink:href="#DejaVuSans-34"/>
      </g>
     </g>
    </g>
    <g id="xtick_3">
     <g id="line2d_3">
      <g>
       <use xlink:href="#m53b56d4333" x="197.238319" y="345.389812" style="stroke: #000000; stroke-width: 0.8"/>
      </g>
     </g>
     <g id="text_3">
      <!-- 8 -->
      <g transform="translate(194.057069 359.98825)scale(0.1 -0.1)">
       <defs>
        <path id="DejaVuSans-38" d="M 2034 2216 
Q 1584 2216 1326 1975 
Q 1069 1734 1069 1313 
Q 1069 891 1326 650 
Q 1584 409 2034 409 
Q 2484 409 2743 651 
Q 3003 894 3003 1313 
Q 3003 1734 2745 1975 
Q 2488 2216 2034 2216 
z
M 1403 2484 
Q 997 2584 770 2862 
Q 544 3141 544 3541 
Q 544 4100 942 4425 
Q 1341 4750 2034 4750 
Q 2731 4750 3128 4425 
Q 3525 4100 3525 3541 
Q 3525 3141 3298 2862 
Q 3072 2584 2669 2484 
Q 3125 2378 3379 2068 
Q 3634 1759 3634 1313 
Q 3634 634 3220 271 
Q 2806 -91 2034 -91 
Q 1263 -91 848 271 
Q 434 634 434 1313 
Q 434 1759 690 2068 
Q 947 2378 1403 2484 
z
M 1172 3481 
Q 1172 3119 1398 2916 
Q 1625 2713 2034 2713 
Q 2441 2713 2670 2916 
Q 2900 3119 2900 3481 
Q 2900 3844 2670 4047 
Q 2441 4250 2034 4250 
Q 1625 4250 1398 4047 
Q 1172 3844 1172 3481 
z
" transform="scale(0.015625)"/>
       </defs>
       <use xlink:href="#DejaVuSans-38"/>
      </g>
     </g>
    </g>
    <g id="xtick_4">
     <g id="line2d_4">
      <g>
       <use xlink:href="#m53b56d4333" x="354.646583" y="345.389812" style="stroke: #000000; stroke-width: 0.8"/>
      </g>
     </g>
     <g id="text_4">
      <!-- 16 -->
      <g transform="translate(348.284083 359.98825)scale(0.1 -0.1)">
       <defs>
        <path id="DejaVuSans-36" d="M 2113 2584 
Q 1688 2584 1439 2293 
Q 1191 2003 1191 1497 
Q 1191 994 1439 701 
Q 1688 409 2113 409 
Q 2538 409 2786 701 
Q 3034 994 3034 1497 
Q 3034 2003 2786 2293 
Q 2538 2584 2113 2584 
z
M 3366 4563 
L 3366 3988 
Q 3128 4100 2886 4159 
Q 2644 4219 2406 4219 
Q 1781 4219 1451 3797 
Q 1122 3375 1075 2522 
Q 1259 2794 1537 2939 
Q 1816 3084 2150 3084 
Q 2853 3084 3261 2657 
Q 3669 2231 3669 1497 
Q 3669 778 3244 343 
Q 2819 -91 2113 -91 
Q 1303 -91 875 529 
Q 447 1150 447 2328 
Q 447 3434 972 4092 
Q 1497 4750 2381 4750 
Q 2619 4750 2861 4703 
Q 3103 4656 3366 4563 
z
" transform="scale(0.015625)"/>
       </defs>
       <use xlink:href="#DejaVuSans-31"/>
       <use xlink:href="#DejaVuSans-36" x="63.623047"/>
      </g>
     </g>
    </g>
    <g id="text_5">
     <!-- connections -->
     <g transform="translate(173.907038 374.426219)scale(0.11 -0.11)">
      <defs>
       <path id="DejaVuSans-63" d="M 3122 3366 
L 3122 2828 
Q 2878 2963 2633 3030 
Q 2388 3097 2138 3097 
Q 1578 3097 1268 2742 
Q 959 2388 959 1747 
Q 959 1106 1268 751 
Q 1578 397 2138 397 
Q 2388 397 2633 464 
Q 2878 531 3122 666 
L 3122 134 
Q 2881 22 2623 -34 
Q 2366 -91 2075 -91 
Q 1284 -91 818 406 
Q 353 903 353 1747 
Q 353 2603 823 3093 
Q 1294 3584 2113 3584 
Q 2378 3584 2631 3529 
Q 2884 3475 3122 3366 
z
" transform="scale(0.015625)"/>
       <path id="DejaVuSans-6f" d="M 1959 3097 
Q 1497 3097 1228 2736 
Q 959 2375 959 1747 
Q 959 1119 1226 758 
Q 1494 397 1959 397 
Q 2419 397 2687 759 
Q 2956 1122 2956 1747 
Q 2956 2369 2687 2733 
Q 2419 3097 1959 3097 
z
M 1959 3584 
Q 2709 3584 3137 3096 
Q 3566 2609 3566 1747 
Q 3566 888 3137 398 
Q 2709 -91 1959 -91 
Q 1206 -91 779 398 
Q 353 888 353 1747 
Q 353 2609 779 3096 
Q 1206 3584 1959 3584 
z
" transform="scale(0.015625)"/>
       <path id="DejaVuSans-6e" d="M 3513 2113 
L 3513 0 
L 2938 0 
L 2938 2094 
Q 2938 2591 2744 2837 
Q 2550 3084 2163 3084 
Q 1697 3084 1428 2787 
Q 1159 2491 1159 1978 
L 1159 0 
L 581 0 
L 581 3500 
L 1159 3500 
L 1159 2956 
Q 1366 3272 1645 3428 
Q 1925 3584 2291 3584 
Q 2894 3584 3203 3211 
Q 3513 2838 3513 2113 
z
" transform="scale(0.015625)"/>
       <path id="DejaVuSans-65" d="M 3597 1894 
L 3597 1613 
L 953 1613 
Q 991 1019 1311 708 
Q 1631 397 2203 397 
Q 2534 397 2845 478 
Q 3156 559 3463 722 
L 3463 178 
Q 3153 47 2828 -22 
Q 2503 -91 2169 -91 
Q 1331 -91 842 396 
Q 353 884 353 1716 
Q 353 2575 817 3079 
Q 1281 3584 2069 3584 
Q 2775 3584 3186 3129 
Q 3597 2675 3597 1894 
z
M 3022 2063 
Q 3016 2534 2758 2815 
Q 2500 3097 2075 3097 
Q 1594 3097 1305 2825 
Q 1016 2553 972 2059 
L 3022 2063 
z
" transform="scale(0.015625)"/>
       <path id="DejaVuSans-74" d="M 1172 4494 
L 1172 3500 
L 2356 3500 
L 2356 3053 
L 1172 3053 
L 1172 1153 
Q 1172 725 1289 603 
Q 1406 481 1766 481 
L 2356 481 
L 2356 0 
L 1766 0 
Q 1100 0 847 248 
Q 594 497 594 1153 
L 594 3053 
L 172 3053 
L 172 3500 
L 594 3500 
L 594 4494 
L 1172 4494 
z
" transform="scale(0.015625)"/>
       <path id="DejaVuSans-69" d="M 603 3500 
L 1178 3500 
L 1178 0 
L 603 0 
L 603 3500 
z
M 603 4863 
L 1178 4863 
L 1178 4134 
L 603 4134 
L 603 4863 
z
" transform="scale(0.015625)"/>
       <path id="DejaVuSans-73" d="M 2834 3397 
L 2834 2853 
Q 2591 2978 2328 3040 
Q 2066 3103 1784 3103 
Q 1356 3103 1142 2972 
Q 928 2841 928 2578 
Q 928 2378 1081 2264 
Q 1234 2150 1697 2047 
L 1894 2003 
Q 2506 1872 2764 1633 
Q 3022 1394 3022 966 
Q 3022 478 2636 193 
Q 2250 -91 1575 -91 
Q 1294 -91 989 -36 
Q 684 19 347 128 
L 347 722 
Q 666 556 975 473 
Q 1284 391 1588 391 
Q 1994 391 2212 530 
Q 2431 669 2431 922 
Q 2431 1156 2273 1281 
Q 2116 1406 1581 1522 
L 1381 1569 
Q 847 1681 609 1914 
Q 372 2147 372 2553 
Q 372 3047 722 3315 
Q 1072 3584 1716 3584 
Q 2034 3584 2315 3537 
Q 2597 3491 2834 3397 
z
" transform="scale(0.015625)"/>
      </defs>
      <use xlink:href="#DejaVuSans-63"/>
      <use xlink:href="#DejaVuSans-6f" x="54.980469"/>
      <use xlink:href="#DejaVuSans-6e" x="116.162109"/>
      <use xlink:href="#DejaVuSans-6e" x="179.541016"/>
      <use xlink:href="#DejaVuSans-65" x="242.919922"/>
      <use xlink:href="#DejaVuSans-63" x="304.443359"/>
      <use xlink:href="#DejaVuSans-74" x="359.423828"/>
      <use xlink:href="#DejaVuSans-69" x="398.632812"/>
      <use xlink:href="#DejaVuSans-6f" x="426.416016"/>
      <use xlink:href="#DejaVuSans-6e" x="487.597656"/>
      <use xlink:href="#DejaVuSans-73" x="550.976562"/>
     </g>
    </g>
   </g>
   <g id="matplotlib.axis_2">
    <g id="ytick_1">
     <g id="line2d_5">
      <path d="M 44.749063 330.773812 
L 369.403608 330.773812 
" clip-path="url(#p7ca2b93582)" style="fill: none; stroke-dasharray: 2.96,1.28; stroke-dashoffset: 0; stroke: #b0b0b0; stroke-opacity: 0.25; stroke-width: 0.8"/>
     </g>
     <g id="line2d_6">
      <defs>
       <path id="mbfb2784c66" d="M 0 0 
L -3.5 0 
" style="stroke: #000000; stroke-width: 0.8"/>
      </defs>
      <g>
       <use xlink:href="#mbfb2784c66" x="44.749063" y="330.773812" style="stroke: #000000; stroke-width: 0.8"/>
      </g>
     </g>
     <g id="text_6">
      <!-- 0.0 -->
      <g transform="translate(21.845938 334.573031)scale(0.1 -0.1)">
       <defs>
        <path id="DejaVuSans-30" d="M 2034 4250 
Q 1547 4250 1301 3770 
Q 1056 3291 1056 2328 
Q 1056 1369 1301 889 
Q 1547 409 2034 409 
Q 2525 409 2770 889 
Q 3016 1369 3016 2328 
Q 3016 3291 2770 3770 
Q 2525 4250 2034 4250 
z
M 2034 4750 
Q 2819 4750 3233 4129 
Q 3647 3509 3647 2328 
Q 3647 1150 3233 529 
Q 2819 -91 2034 -91 
Q 1250 -91 836 529 
Q 422 1150 422 2328 
Q 422 3509 836 4129 
Q 1250 4750 2034 4750 
z
" transform="scale(0.015625)"/>
        <path id="DejaVuSans-2e" d="M 684 794 
L 1344 794 
L 1344 0 
L 684 0 
L 684 794 
z
" transform="scale(0.015625)"/>
       </defs>
       <use xlink:href="#DejaVuSans-30"/>
       <use xlink:href="#DejaVuSans-2e" x="63.623047"/>
       <use xlink:href="#DejaVuSans-30" x="95.410156"/>
      </g>
     </g>
    </g>
    <g id="ytick_2">
     <g id="line2d_7">
      <path d="M 44.749063 289.339369 
L 369.403608 289.339369 
" clip-path="url(#p7ca2b93582)" style="fill: none; stroke-dasharray: 2.96,1.28; stroke-dashoffset: 0; stroke: #b0b0b0; stroke-opacity: 0.25; stroke-width: 0.8"/>
     </g>
     <g id="line2d_8">
      <g>
       <use xlink:href="#mbfb2784c66" x="44.749063" y="289.339369" style="stroke: #000000; stroke-width: 0.8"/>
      </g>
     </g>
     <g id="text_7">
      <!-- 0.2 -->
      <g transform="translate(21.845938 293.138588)scale(0.1 -0.1)">
       <defs>
        <path id="DejaVuSans-32" d="M 1228 531 
L 3431 531 
L 3431 0 
L 469 0 
L 469 531 
Q 828 903 1448 1529 
Q 2069 2156 2228 2338 
Q 2531 2678 2651 2914 
Q 2772 3150 2772 3378 
Q 2772 3750 2511 3984 
Q 2250 4219 1831 4219 
Q 1534 4219 1204 4116 
Q 875 4013 500 3803 
L 500 4441 
Q 881 4594 1212 4672 
Q 1544 4750 1819 4750 
Q 2544 4750 2975 4387 
Q 3406 4025 3406 3419 
Q 3406 3131 3298 2873 
Q 3191 2616 2906 2266 
Q 2828 2175 2409 1742 
Q 1991 1309 1228 531 
z
" transform="scale(0.015625)"/>
       </defs>
       <use xlink:href="#DejaVuSans-30"/>
       <use xlink:href="#DejaVuSans-2e" x="63.623047"/>
       <use xlink:href="#DejaVuSans-32" x="95.410156"/>
      </g>
     </g>
    </g>
    <g id="ytick_3">
     <g id="line2d_9">
      <path d="M 44.749063 247.904925 
L 369.403608 247.904925 
" clip-path="url(#p7ca2b93582)" style="fill: none; stroke-dasharray: 2.96,1.28; stroke-dashoffset: 0; stroke: #b0b0b0; stroke-opacity: 0.25; stroke-width: 0.8"/>
     </g>
     <g id="line2d_10">
      <g>
       <use xlink:href="#mbfb2784c66" x="44.749063" y="247.904925" style="stroke: #000000; stroke-width: 0.8"/>
      </g>
     </g>
     <g id="text_8">
      <!-- 0.4 -->
      <g transform="translate(21.845938 251.704144)scale(0.1 -0.1)">
       <use xlink:href="#DejaVuSans-30"/>
       <use xlink:href="#DejaVuSans-2e" x="63.623047"/>
       <use xlink:href="#DejaVuSans-34" x="95.410156"/>
      </g>
     </g>
    </g>
    <g id="ytick_4">
     <g id="line2d_11">
      <path d="M 44.749063 206.470482 
L 369.403608 206.470482 
" clip-path="url(#p7ca2b93582)" style="fill: none; stroke-dasharray: 2.96,1.28; stroke-dashoffset: 0; stroke: #b0b0b0; stroke-opacity: 0.25; stroke-width: 0.8"/>
     </g>
     <g id="line2d_12">
      <g>
       <use xlink:href="#mbfb2784c66" x="44.749063" y="206.470482" style="stroke: #000000; stroke-width: 0.8"/>
      </g>
     </g>
     <g id="text_9">
      <!-- 0.6 -->
      <g transform="translate(21.845938 210.2697)scale(0.1 -0.1)">
       <use xlink:href="#DejaVuSans-30"/>
       <use xlink:href="#DejaVuSans-2e" x="63.623047"/>
       <use xlink:href="#DejaVuSans-36" x="95.410156"/>
      </g>
     </g>
    </g>
    <g id="ytick_5">
     <g id="line2d_13">
      <path d="M 44.749063 165.036038 
L 369.403608 165.036038 
" clip-path="url(#p7ca2b93582)" style="fill: none; stroke-dasharray: 2.96,1.28; stroke-dashoffset: 0; stroke: #b0b0b0; stroke-opacity: 0.25; stroke-width: 0.8"/>
     </g>
     <g id="line2d_14">
      <g>
       <use xlink:href="#mbfb2784c66" x="44.749063" y="165.036038" style="stroke: #000000; stroke-width: 0.8"/>
      </g>
     </g>
     <g id="text_10">
      <!-- 0.8 -->
      <g transform="translate(21.845938 168.835257)scale(0.1 -0.1)">
       <use xlink:href="#DejaVuSans-30"/>
       <use xlink:href="#DejaVuSans-2e" x="63.623047"/>
       <use xlink:href="#DejaVuSans-38" x="95.410156"/>
      </g>
     </g>
    </g>
    <g id="ytick_6">
     <g id="line2d_15">
      <path d="M 44.749063 123.601594 
L 369.403608 123.601594 
" clip-path="url(#p7ca2b93582)" style="fill: none; stroke-dasharray: 2.96,1.28; stroke-dashoffset: 0; stroke: #b0b0b0; stroke-opacity: 0.25; stroke-width: 0.8"/>
     </g>
     <g id="line2d_16">
      <g>
       <use xlink:href="#mbfb2784c66" x="44.749063" y="123.601594" style="stroke: #000000; stroke-width: 0.8"/>
      </g>
     </g>
     <g id="text_11">
      <!-- 1.0 -->
      <g transform="translate(21.845938 127.400813)scale(0.1 -0.1)">
       <use xlink:href="#DejaVuSans-31"/>
       <use xlink:href="#DejaVuSans-2e" x="63.623047"/>
       <use xlink:href="#DejaVuSans-30" x="95.410156"/>
      </g>
     </g>
    </g>
    <g id="ytick_7">
     <g id="line2d_17">
      <path d="M 44.749063 82.167151 
L 369.403608 82.167151 
" clip-path="url(#p7ca2b93582)" style="fill: none; stroke-dasharray: 2.96,1.28; stroke-dashoffset: 0; stroke: #b0b0b0; stroke-opacity: 0.25; stroke-width: 0.8"/>
     </g>
     <g id="line2d_18">
      <g>
       <use xlink:href="#mbfb2784c66" x="44.749063" y="82.167151" style="stroke: #000000; stroke-width: 0.8"/>
      </g>
     </g>
     <g id="text_12">
      <!-- 1.2 -->
      <g transform="translate(21.845938 85.966369)scale(0.1 -0.1)">
       <use xlink:href="#DejaVuSans-31"/>
       <use xlink:href="#DejaVuSans-2e" x="63.623047"/>
       <use xlink:href="#DejaVuSans-32" x="95.410156"/>
      </g>
     </g>
    </g>
    <g id="ytick_8">
     <g id="line2d_19">
      <path d="M 44.749063 40.732707 
L 369.403608 40.732707 
" clip-path="url(#p7ca2b93582)" style="fill: none; stroke-dasharray: 2.96,1.28; stroke-dashoffset: 0; stroke: #b0b0b0; stroke-opacity: 0.25; stroke-width: 0.8"/>
     </g>
     <g id="line2d_20">
      <g>
       <use xlink:href="#mbfb2784c66" x="44.749063" y="40.732707" style="stroke: #000000; stroke-width: 0.8"/>
      </g>
     </g>
     <g id="text_13">
      <!-- 1.4 -->
      <g transform="translate(21.845938 44.531926)scale(0.1 -0.1)">
       <use xlink:href="#DejaVuSans-31"/>
       <use xlink:href="#DejaVuSans-2e" x="63.623047"/>
       <use xlink:href="#DejaVuSans-34" x="95.410156"/>
      </g>
     </g>
    </g>
    <g id="text_14">
     <!-- Median throughput / Gbps -->
     <g transform="translate(15.558281 256.566703)rotate(-90)scale(0.11 -0.11)">
      <defs>
       <path id="DejaVuSans-4d" d="M 628 4666 
L 1569 4666 
L 2759 1491 
L 3956 4666 
L 4897 4666 
L 4897 0 
L 4281 0 
L 4281 4097 
L 3078 897 
L 2444 897 
L 1241 4097 
L 1241 0 
L 628 0 
L 628 4666 
z
" transform="scale(0.015625)"/>
       <path id="DejaVuSans-64" d="M 2906 2969 
L 2906 4863 
L 3481 4863 
L 3481 0 
L 2906 0 
L 2906 525 
Q 2725 213 2448 61 
Q 2172 -91 1784 -91 
Q 1150 -91 751 415 
Q 353 922 353 1747 
Q 353 2572 751 3078 
Q 1150 3584 1784 3584 
Q 2172 3584 2448 3432 
Q 2725 3281 2906 2969 
z
M 947 1747 
Q 947 1113 1208 752 
Q 1469 391 1925 391 
Q 2381 391 2643 752 
Q 2906 1113 2906 1747 
Q 2906 2381 2643 2742 
Q 2381 3103 1925 3103 
Q 1469 3103 1208 2742 
Q 947 2381 947 1747 
z
" transform="scale(0.015625)"/>
       <path id="DejaVuSans-61" d="M 2194 1759 
Q 1497 1759 1228 1600 
Q 959 1441 959 1056 
Q 959 750 1161 570 
Q 1363 391 1709 391 
Q 2188 391 2477 730 
Q 2766 1069 2766 1631 
L 2766 1759 
L 2194 1759 
z
M 3341 1997 
L 3341 0 
L 2766 0 
L 2766 531 
Q 2569 213 2275 61 
Q 1981 -91 1556 -91 
Q 1019 -91 701 211 
Q 384 513 384 1019 
Q 384 1609 779 1909 
Q 1175 2209 1959 2209 
L 2766 2209 
L 2766 2266 
Q 2766 2663 2505 2880 
Q 2244 3097 1772 3097 
Q 1472 3097 1187 3025 
Q 903 2953 641 2809 
L 641 3341 
Q 956 3463 1253 3523 
Q 1550 3584 1831 3584 
Q 2591 3584 2966 3190 
Q 3341 2797 3341 1997 
z
" transform="scale(0.015625)"/>
       <path id="DejaVuSans-20" transform="scale(0.015625)"/>
       <path id="DejaVuSans-68" d="M 3513 2113 
L 3513 0 
L 2938 0 
L 2938 2094 
Q 2938 2591 2744 2837 
Q 2550 3084 2163 3084 
Q 1697 3084 1428 2787 
Q 1159 2491 1159 1978 
L 1159 0 
L 581 0 
L 581 4863 
L 1159 4863 
L 1159 2956 
Q 1366 3272 1645 3428 
Q 1925 3584 2291 3584 
Q 2894 3584 3203 3211 
Q 3513 2838 3513 2113 
z
" transform="scale(0.015625)"/>
       <path id="DejaVuSans-72" d="M 2631 2963 
Q 2534 3019 2420 3045 
Q 2306 3072 2169 3072 
Q 1681 3072 1420 2755 
Q 1159 2438 1159 1844 
L 1159 0 
L 581 0 
L 581 3500 
L 1159 3500 
L 1159 2956 
Q 1341 3275 1631 3429 
Q 1922 3584 2338 3584 
Q 2397 3584 2469 3576 
Q 2541 3569 2628 3553 
L 2631 2963 
z
" transform="scale(0.015625)"/>
       <path id="DejaVuSans-75" d="M 544 1381 
L 544 3500 
L 1119 3500 
L 1119 1403 
Q 1119 906 1312 657 
Q 1506 409 1894 409 
Q 2359 409 2629 706 
Q 2900 1003 2900 1516 
L 2900 3500 
L 3475 3500 
L 3475 0 
L 2900 0 
L 2900 538 
Q 2691 219 2414 64 
Q 2138 -91 1772 -91 
Q 1169 -91 856 284 
Q 544 659 544 1381 
z
M 1991 3584 
L 1991 3584 
z
" transform="scale(0.015625)"/>
       <path id="DejaVuSans-67" d="M 2906 1791 
Q 2906 2416 2648 2759 
Q 2391 3103 1925 3103 
Q 1463 3103 1205 2759 
Q 947 2416 947 1791 
Q 947 1169 1205 825 
Q 1463 481 1925 481 
Q 2391 481 2648 825 
Q 2906 1169 2906 1791 
z
M 3481 434 
Q 3481 -459 3084 -895 
Q 2688 -1331 1869 -1331 
Q 1566 -1331 1297 -1286 
Q 1028 -1241 775 -1147 
L 775 -588 
Q 1028 -725 1275 -790 
Q 1522 -856 1778 -856 
Q 2344 -856 2625 -561 
Q 2906 -266 2906 331 
L 2906 616 
Q 2728 306 2450 153 
Q 2172 0 1784 0 
Q 1141 0 747 490 
Q 353 981 353 1791 
Q 353 2603 747 3093 
Q 1141 3584 1784 3584 
Q 2172 3584 2450 3431 
Q 2728 3278 2906 2969 
L 2906 3500 
L 3481 3500 
L 3481 434 
z
" transform="scale(0.015625)"/>
       <path id="DejaVuSans-70" d="M 1159 525 
L 1159 -1331 
L 581 -1331 
L 581 3500 
L 1159 3500 
L 1159 2969 
Q 1341 3281 1617 3432 
Q 1894 3584 2278 3584 
Q 2916 3584 3314 3078 
Q 3713 2572 3713 1747 
Q 3713 922 3314 415 
Q 2916 -91 2278 -91 
Q 1894 -91 1617 61 
Q 1341 213 1159 525 
z
M 3116 1747 
Q 3116 2381 2855 2742 
Q 2594 3103 2138 3103 
Q 1681 3103 1420 2742 
Q 1159 2381 1159 1747 
Q 1159 1113 1420 752 
Q 1681 391 2138 391 
Q 2594 391 2855 752 
Q 3116 1113 3116 1747 
z
" transform="scale(0.015625)"/>
       <path id="DejaVuSans-2f" d="M 1625 4666 
L 2156 4666 
L 531 -594 
L 0 -594 
L 1625 4666 
z
" transform="scale(0.015625)"/>
       <path id="DejaVuSans-47" d="M 3809 666 
L 3809 1919 
L 2778 1919 
L 2778 2438 
L 4434 2438 
L 4434 434 
Q 4069 175 3628 42 
Q 3188 -91 2688 -91 
Q 1594 -91 976 548 
Q 359 1188 359 2328 
Q 359 3472 976 4111 
Q 1594 4750 2688 4750 
Q 3144 4750 3555 4637 
Q 3966 4525 4313 4306 
L 4313 3634 
Q 3963 3931 3569 4081 
Q 3175 4231 2741 4231 
Q 1884 4231 1454 3753 
Q 1025 3275 1025 2328 
Q 1025 1384 1454 906 
Q 1884 428 2741 428 
Q 3075 428 3337 486 
Q 3600 544 3809 666 
z
" transform="scale(0.015625)"/>
       <path id="DejaVuSans-62" d="M 3116 1747 
Q 3116 2381 2855 2742 
Q 2594 3103 2138 3103 
Q 1681 3103 1420 2742 
Q 1159 2381 1159 1747 
Q 1159 1113 1420 752 
Q 1681 391 2138 391 
Q 2594 391 2855 752 
Q 3116 1113 3116 1747 
z
M 1159 2969 
Q 1341 3281 1617 3432 
Q 1894 3584 2278 3584 
Q 2916 3584 3314 3078 
Q 3713 2572 3713 1747 
Q 3713 922 3314 415 
Q 2916 -91 2278 -91 
Q 1894 -91 1617 61 
Q 1341 213 1159 525 
L 1159 0 
L 581 0 
L 581 4863 
L 1159 4863 
L 1159 2969 
z
" transform="scale(0.015625)"/>
      </defs>
      <use xlink:href="#DejaVuSans-4d"/>
      <use xlink:href="#DejaVuSans-65" x="86.279297"/>
      <use xlink:href="#DejaVuSans-64" x="147.802734"/>
      <use xlink:href="#DejaVuSans-69" x="211.279297"/>
      <use xlink:href="#DejaVuSans-61" x="239.0625"/>
      <use xlink:href="#DejaVuSans-6e" x="300.341797"/>
      <use xlink:href="#DejaVuSans-20" x="363.720703"/>
      <use xlink:href="#DejaVuSans-74" x="395.507812"/>
      <use xlink:href="#DejaVuSans-68" x="434.716797"/>
      <use xlink:href="#DejaVuSans-72" x="498.095703"/>
      <use xlink:href="#DejaVuSans-6f" x="536.958984"/>
      <use xlink:href="#DejaVuSans-75" x="598.140625"/>
      <use xlink:href="#DejaVuSans-67" x="661.519531"/>
      <use xlink:href="#DejaVuSans-68" x="724.996094"/>
      <use xlink:href="#DejaVuSans-70" x="788.375"/>
      <use xlink:href="#DejaVuSans-75" x="851.851562"/>
      <use xlink:href="#DejaVuSans-74" x="915.230469"/>
      <use xlink:href="#DejaVuSans-20" x="954.439453"/>
      <use xlink:href="#DejaVuSans-2f" x="986.226562"/>
      <use xlink:href="#DejaVuSans-20" x="1019.917969"/>
      <use xlink:href="#DejaVuSans-47" x="1051.705078"/>
      <use xlink:href="#DejaVuSans-62" x="1129.195312"/>
      <use xlink:href="#DejaVuSans-70" x="1192.671875"/>
      <use xlink:href="#DejaVuSans-73" x="1256.148438"/>
     </g>
    </g>
   </g>
   <g id="line2d_21">
    <path d="M 59.506087 38.453812 
L 118.534186 39.489674 
L 197.238319 330.773812 
L 354.646583 330.773812 
" clip-path="url(#p7ca2b93582)" style="fill: none; stroke: #dd7f27; stroke-width: 1.5; stroke-linecap: square"/>
    <defs>
     <path id="m3db72a105b" d="M 0 3 
C 0.795609 3 1.55874 2.683901 2.12132 2.12132 
C 2.683901 1.55874 3 0.795609 3 0 
C 3 -0.795609 2.683901 -1.55874 2.12132 -2.12132 
C 1.55874 -2.683901 0.795609 -3 0 -3 
C -0.795609 -3 -1.55874 -2.683901 -2.12132 -2.12132 
C -2.683901 -1.55874 -3 -0.795609 -3 0 
C -3 0.795609 -2.683901 1.55874 -2.12132 2.12132 
C -1.55874 2.683901 -0.795609 3 0 3 
z
" style="stroke: #dd7f27"/>
    </defs>
    <g clip-path="url(#p7ca2b93582)">
     <use xlink:href="#m3db72a105b" x="59.506087" y="38.453812" style="fill: #dd7f27; stroke: #dd7f27"/>
     <use xlink:href="#m3db72a105b" x="118.534186" y="39.489674" style="fill: #dd7f27; stroke: #dd7f27"/>
     <use xlink:href="#m3db72a105b" x="197.238319" y="330.773812" style="fill: #dd7f27; stroke: #dd7f27"/>
     <use xlink:href="#m3db72a105b" x="354.646583" y="330.773812" style="fill: #dd7f27; stroke: #dd7f27"/>
    </g>
   </g>
   <g id="line2d_22">
    <path d="M 59.506087 230.709631 
L 118.534186 151.362671 
L 197.238319 330.773812 
L 354.646583 330.773812 
" clip-path="url(#p7ca2b93582)" style="fill: none; stroke: #2f9e68; stroke-width: 1.5; stroke-linecap: square"/>
    <defs>
     <path id="m296e6ce6d3" d="M 0 3 
C 0.795609 3 1.55874 2.683901 2.12132 2.12132 
C 2.683901 1.55874 3 0.795609 3 0 
C 3 -0.795609 2.683901 -1.55874 2.12132 -2.12132 
C 1.55874 -2.683901 0.795609 -3 0 -3 
C -0.795609 -3 -1.55874 -2.683901 -2.12132 -2.12132 
C -2.683901 -1.55874 -3 -0.795609 -3 0 
C -3 0.795609 -2.683901 1.55874 -2.12132 2.12132 
C -1.55874 2.683901 -0.795609 3 0 3 
z
" style="stroke: #2f9e68"/>
    </defs>
    <g clip-path="url(#p7ca2b93582)">
     <use xlink:href="#m296e6ce6d3" x="59.506087" y="230.709631" style="fill: #2f9e68; stroke: #2f9e68"/>
     <use xlink:href="#m296e6ce6d3" x="118.534186" y="151.362671" style="fill: #2f9e68; stroke: #2f9e68"/>
     <use xlink:href="#m296e6ce6d3" x="197.238319" y="330.773812" style="fill: #2f9e68; stroke: #2f9e68"/>
     <use xlink:href="#m296e6ce6d3" x="354.646583" y="330.773812" style="fill: #2f9e68; stroke: #2f9e68"/>
    </g>
   </g>
   <g id="patch_3">
    <path d="M 44.749063 345.389812 
L 44.749063 23.837812 
" style="fill: none; stroke: #000000; stroke-width: 0.8; stroke-linejoin: miter; stroke-linecap: square"/>
   </g>
   <g id="patch_4">
    <path d="M 369.403608 345.389812 
L 369.403608 23.837812 
" style="fill: none; stroke: #000000; stroke-width: 0.8; stroke-linejoin: miter; stroke-linecap: square"/>
   </g>
   <g id="patch_5">
    <path d="M 44.749063 345.389812 
L 369.403608 345.389812 
" style="fill: none; stroke: #000000; stroke-width: 0.8; stroke-linejoin: miter; stroke-linecap: square"/>
   </g>
   <g id="patch_6">
    <path d="M 44.749063 23.837812 
L 369.403608 23.837812 
" style="fill: none; stroke: #000000; stroke-width: 0.8; stroke-linejoin: miter; stroke-linecap: square"/>
   </g>
   <g id="text_15">
    <!-- 1GiB GridFlux STOR checksum impact -->
    <g transform="translate(73.732898 17.837812)scale(0.14 -0.14)">
     <defs>
      <path id="DejaVuSans-42" d="M 1259 2228 
L 1259 519 
L 2272 519 
Q 2781 519 3026 730 
Q 3272 941 3272 1375 
Q 3272 1813 3026 2020 
Q 2781 2228 2272 2228 
L 1259 2228 
z
M 1259 4147 
L 1259 2741 
L 2194 2741 
Q 2656 2741 2882 2914 
Q 3109 3088 3109 3444 
Q 3109 3797 2882 3972 
Q 2656 4147 2194 4147 
L 1259 4147 
z
M 628 4666 
L 2241 4666 
Q 2963 4666 3353 4366 
Q 3744 4066 3744 3513 
Q 3744 3084 3544 2831 
Q 3344 2578 2956 2516 
Q 3422 2416 3680 2098 
Q 3938 1781 3938 1306 
Q 3938 681 3513 340 
Q 3088 0 2303 0 
L 628 0 
L 628 4666 
z
" transform="scale(0.015625)"/>
      <path id="DejaVuSans-46" d="M 628 4666 
L 3309 4666 
L 3309 4134 
L 1259 4134 
L 1259 2759 
L 3109 2759 
L 3109 2228 
L 1259 2228 
L 1259 0 
L 628 0 
L 628 4666 
z
" transform="scale(0.015625)"/>
      <path id="DejaVuSans-6c" d="M 603 4863 
L 1178 4863 
L 1178 0 
L 603 0 
L 603 4863 
z
" transform="scale(0.015625)"/>
      <path id="DejaVuSans-78" d="M 3513 3500 
L 2247 1797 
L 3578 0 
L 2900 0 
L 1881 1375 
L 863 0 
L 184 0 
L 1544 1831 
L 300 3500 
L 978 3500 
L 1906 2253 
L 2834 3500 
L 3513 3500 
z
" transform="scale(0.015625)"/>
      <path id="DejaVuSans-53" d="M 3425 4513 
L 3425 3897 
Q 3066 4069 2747 4153 
Q 2428 4238 2131 4238 
Q 1616 4238 1336 4038 
Q 1056 3838 1056 3469 
Q 1056 3159 1242 3001 
Q 1428 2844 1947 2747 
L 2328 2669 
Q 3034 2534 3370 2195 
Q 3706 1856 3706 1288 
Q 3706 609 3251 259 
Q 2797 -91 1919 -91 
Q 1588 -91 1214 -16 
Q 841 59 441 206 
L 441 856 
Q 825 641 1194 531 
Q 1563 422 1919 422 
Q 2459 422 2753 634 
Q 3047 847 3047 1241 
Q 3047 1584 2836 1778 
Q 2625 1972 2144 2069 
L 1759 2144 
Q 1053 2284 737 2584 
Q 422 2884 422 3419 
Q 422 4038 858 4394 
Q 1294 4750 2059 4750 
Q 2388 4750 2728 4690 
Q 3069 4631 3425 4513 
z
" transform="scale(0.015625)"/>
      <path id="DejaVuSans-54" d="M -19 4666 
L 3928 4666 
L 3928 4134 
L 2272 4134 
L 2272 0 
L 1638 0 
L 1638 4134 
L -19 4134 
L -19 4666 
z
" transform="scale(0.015625)"/>
      <path id="DejaVuSans-4f" d="M 2522 4238 
Q 1834 4238 1429 3725 
Q 1025 3213 1025 2328 
Q 1025 1447 1429 934 
Q 1834 422 2522 422 
Q 3209 422 3611 934 
Q 4013 1447 4013 2328 
Q 4013 3213 3611 3725 
Q 3209 4238 2522 4238 
z
M 2522 4750 
Q 3503 4750 4090 4092 
Q 4678 3434 4678 2328 
Q 4678 1225 4090 567 
Q 3503 -91 2522 -91 
Q 1538 -91 948 565 
Q 359 1222 359 2328 
Q 359 3434 948 4092 
Q 1538 4750 2522 4750 
z
" transform="scale(0.015625)"/>
      <path id="DejaVuSans-52" d="M 2841 2188 
Q 3044 2119 3236 1894 
Q 3428 1669 3622 1275 
L 4263 0 
L 3584 0 
L 2988 1197 
Q 2756 1666 2539 1819 
Q 2322 1972 1947 1972 
L 1259 1972 
L 1259 0 
L 628 0 
L 628 4666 
L 2053 4666 
Q 2853 4666 3247 4331 
Q 3641 3997 3641 3322 
Q 3641 2881 3436 2590 
Q 3231 2300 2841 2188 
z
M 1259 4147 
L 1259 2491 
L 2053 2491 
Q 2509 2491 2742 2702 
Q 2975 2913 2975 3322 
Q 2975 3731 2742 3939 
Q 2509 4147 2053 4147 
L 1259 4147 
z
" transform="scale(0.015625)"/>
      <path id="DejaVuSans-6b" d="M 581 4863 
L 1159 4863 
L 1159 1991 
L 2875 3500 
L 3609 3500 
L 1753 1863 
L 3688 0 
L 2938 0 
L 1159 1709 
L 1159 0 
L 581 0 
L 581 4863 
z
" transform="scale(0.015625)"/>
      <path id="DejaVuSans-6d" d="M 3328 2828 
Q 3544 3216 3844 3400 
Q 4144 3584 4550 3584 
Q 5097 3584 5394 3201 
Q 5691 2819 5691 2113 
L 5691 0 
L 5113 0 
L 5113 2094 
Q 5113 2597 4934 2840 
Q 4756 3084 4391 3084 
Q 3944 3084 3684 2787 
Q 3425 2491 3425 1978 
L 3425 0 
L 2847 0 
L 2847 2094 
Q 2847 2600 2669 2842 
Q 2491 3084 2119 3084 
Q 1678 3084 1418 2786 
Q 1159 2488 1159 1978 
L 1159 0 
L 581 0 
L 581 3500 
L 1159 3500 
L 1159 2956 
Q 1356 3278 1631 3431 
Q 1906 3584 2284 3584 
Q 2666 3584 2933 3390 
Q 3200 3197 3328 2828 
z
" transform="scale(0.015625)"/>
     </defs>
     <use xlink:href="#DejaVuSans-31"/>
     <use xlink:href="#DejaVuSans-47" x="63.623047"/>
     <use xlink:href="#DejaVuSans-69" x="141.113281"/>
     <use xlink:href="#DejaVuSans-42" x="168.896484"/>
     <use xlink:href="#DejaVuSans-20" x="237.5"/>
     <use xlink:href="#DejaVuSans-47" x="269.287109"/>
     <use xlink:href="#DejaVuSans-72" x="346.777344"/>
     <use xlink:href="#DejaVuSans-69" x="387.890625"/>
     <use xlink:href="#DejaVuSans-64" x="415.673828"/>
     <use xlink:href="#DejaVuSans-46" x="479.150391"/>
     <use xlink:href="#DejaVuSans-6c" x="536.669922"/>
     <use xlink:href="#DejaVuSans-75" x="564.453125"/>
     <use xlink:href="#DejaVuSans-78" x="627.832031"/>
     <use xlink:href="#DejaVuSans-20" x="687.011719"/>
     <use xlink:href="#DejaVuSans-53" x="718.798828"/>
     <use xlink:href="#DejaVuSans-54" x="782.275391"/>
     <use xlink:href="#DejaVuSans-4f" x="843.359375"/>
     <use xlink:href="#DejaVuSans-52" x="922.070312"/>
     <use xlink:href="#DejaVuSans-20" x="991.552734"/>
     <use xlink:href="#DejaVuSans-63" x="1023.339844"/>
     <use xlink:href="#DejaVuSans-68" x="1078.320312"/>
     <use xlink:href="#DejaVuSans-65" x="1141.699219"/>
     <use xlink:href="#DejaVuSans-63" x="1203.222656"/>
     <use xlink:href="#DejaVuSans-6b" x="1258.203125"/>
     <use xlink:href="#DejaVuSans-73" x="1316.113281"/>
     <use xlink:href="#DejaVuSans-75" x="1368.212891"/>
     <use xlink:href="#DejaVuSans-6d" x="1431.591797"/>
     <use xlink:href="#DejaVuSans-20" x="1529.003906"/>
     <use xlink:href="#DejaVuSans-69" x="1560.791016"/>
     <use xlink:href="#DejaVuSans-6d" x="1588.574219"/>
     <use xlink:href="#DejaVuSans-70" x="1685.986328"/>
     <use xlink:href="#DejaVuSans-61" x="1749.462891"/>
     <use xlink:href="#DejaVuSans-63" x="1810.742188"/>
     <use xlink:href="#DejaVuSans-74" x="1865.722656"/>
    </g>
   </g>
   <g id="legend_1">
    <g id="patch_7">
     <path d="M 251.712983 61.194062 
L 362.403608 61.194062 
Q 364.403608 61.194062 364.403608 59.194062 
L 364.403608 30.837812 
Q 364.403608 28.837812 362.403608 28.837812 
L 251.712983 28.837812 
Q 249.712983 28.837812 249.712983 30.837812 
L 249.712983 59.194062 
Q 249.712983 61.194062 251.712983 61.194062 
z
" style="fill: #f8f8f6; opacity: 0.8; stroke: #cccccc; stroke-linejoin: miter"/>
    </g>
    <g id="line2d_23">
     <path d="M 253.712983 36.93625 
L 263.712983 36.93625 
L 273.712983 36.93625 
" style="fill: none; stroke: #dd7f27; stroke-width: 1.5; stroke-linecap: square"/>
     <g>
      <use xlink:href="#m3db72a105b" x="263.712983" y="36.93625" style="fill: #dd7f27; stroke: #dd7f27"/>
     </g>
    </g>
    <g id="text_16">
     <!-- checksum none -->
     <g transform="translate(281.712983 40.43625)scale(0.1 -0.1)">
      <use xlink:href="#DejaVuSans-63"/>
      <use xlink:href="#DejaVuSans-68" x="54.980469"/>
      <use xlink:href="#DejaVuSans-65" x="118.359375"/>
      <use xlink:href="#DejaVuSans-63" x="179.882812"/>
      <use xlink:href="#DejaVuSans-6b" x="234.863281"/>
      <use xlink:href="#DejaVuSans-73" x="292.773438"/>
      <use xlink:href="#DejaVuSans-75" x="344.873047"/>
      <use xlink:href="#DejaVuSans-6d" x="408.251953"/>
      <use xlink:href="#DejaVuSans-20" x="505.664062"/>
      <use xlink:href="#DejaVuSans-6e" x="537.451172"/>
      <use xlink:href="#DejaVuSans-6f" x="600.830078"/>
      <use xlink:href="#DejaVuSans-6e" x="662.011719"/>
      <use xlink:href="#DejaVuSans-65" x="725.390625"/>
     </g>
    </g>
    <g id="line2d_24">
     <path d="M 253.712983 51.614375 
L 263.712983 51.614375 
L 273.712983 51.614375 
" style="fill: none; stroke: #2f9e68; stroke-width: 1.5; stroke-linecap: square"/>
     <g>
      <use xlink:href="#m296e6ce6d3" x="263.712983" y="51.614375" style="fill: #2f9e68; stroke: #2f9e68"/>
     </g>
    </g>
    <g id="text_17">
     <!-- crc32c -->
     <g transform="translate(281.712983 55.114375)scale(0.1 -0.1)">
      <defs>
       <path id="DejaVuSans-33" d="M 2597 2516 
Q 3050 2419 3304 2112 
Q 3559 1806 3559 1356 
Q 3559 666 3084 287 
Q 2609 -91 1734 -91 
Q 1441 -91 1130 -33 
Q 819 25 488 141 
L 488 750 
Q 750 597 1062 519 
Q 1375 441 1716 441 
Q 2309 441 2620 675 
Q 2931 909 2931 1356 
Q 2931 1769 2642 2001 
Q 2353 2234 1838 2234 
L 1294 2234 
L 1294 2753 
L 1863 2753 
Q 2328 2753 2575 2939 
Q 2822 3125 2822 3475 
Q 2822 3834 2567 4026 
Q 2313 4219 1838 4219 
Q 1578 4219 1281 4162 
Q 984 4106 628 3988 
L 628 4550 
Q 988 4650 1302 4700 
Q 1616 4750 1894 4750 
Q 2613 4750 3031 4423 
Q 3450 4097 3450 3541 
Q 3450 3153 3228 2886 
Q 3006 2619 2597 2516 
z
" transform="scale(0.015625)"/>
      </defs>
      <use xlink:href="#DejaVuSans-63"/>
      <use xlink:href="#DejaVuSans-72" x="54.980469"/>
      <use xlink:href="#DejaVuSans-63" x="93.84375"/>
      <use xlink:href="#DejaVuSans-33" x="148.824219"/>
      <use xlink:href="#DejaVuSans-32" x="212.447266"/>
      <use xlink:href="#DejaVuSans-63" x="276.070312"/>
     </g>
    </g>
   </g>
  </g>
  <g id="axes_2">
   <g id="patch_8">
    <path d="M 434.334517 345.389812 
L 758.989062 345.389812 
L 758.989062 23.837812 
L 434.334517 23.837812 
z
" style="fill: #f8f8f6"/>
   </g>
   <g id="matplotlib.axis_3">
    <g id="xtick_5">
     <g id="line2d_25">
      <g>
       <use xlink:href="#m53b56d4333" x="449.091542" y="345.389812" style="stroke: #000000; stroke-width: 0.8"/>
      </g>
     </g>
     <g id="text_18">
      <!-- 1 -->
      <g transform="translate(445.910292 359.98825)scale(0.1 -0.1)">
       <use xlink:href="#DejaVuSans-31"/>
      </g>
     </g>
    </g>
    <g id="xtick_6">
     <g id="line2d_26">
      <g>
       <use xlink:href="#m53b56d4333" x="508.119641" y="345.389812" style="stroke: #000000; stroke-width: 0.8"/>
      </g>
     </g>
     <g id="text_19">
      <!-- 4 -->
      <g transform="translate(504.938391 359.98825)scale(0.1 -0.1)">
       <use xlink:href="#DejaVuSans-34"/>
      </g>
     </g>
    </g>
    <g id="xtick_7">
     <g id="line2d_27">
      <g>
       <use xlink:href="#m53b56d4333" x="586.823773" y="345.389812" style="stroke: #000000; stroke-width: 0.8"/>
      </g>
     </g>
     <g id="text_20">
      <!-- 8 -->
      <g transform="translate(583.642523 359.98825)scale(0.1 -0.1)">
       <use xlink:href="#DejaVuSans-38"/>
      </g>
     </g>
    </g>
    <g id="xtick_8">
     <g id="line2d_28">
      <g>
       <use xlink:href="#m53b56d4333" x="744.232038" y="345.389812" style="stroke: #000000; stroke-width: 0.8"/>
      </g>
     </g>
     <g id="text_21">
      <!-- 16 -->
      <g transform="translate(737.869538 359.98825)scale(0.1 -0.1)">
       <use xlink:href="#DejaVuSans-31"/>
       <use xlink:href="#DejaVuSans-36" x="63.623047"/>
      </g>
     </g>
    </g>
    <g id="text_22">
     <!-- connections -->
     <g transform="translate(563.492493 374.426219)scale(0.11 -0.11)">
      <use xlink:href="#DejaVuSans-63"/>
      <use xlink:href="#DejaVuSans-6f" x="54.980469"/>
      <use xlink:href="#DejaVuSans-6e" x="116.162109"/>
      <use xlink:href="#DejaVuSans-6e" x="179.541016"/>
      <use xlink:href="#DejaVuSans-65" x="242.919922"/>
      <use xlink:href="#DejaVuSans-63" x="304.443359"/>
      <use xlink:href="#DejaVuSans-74" x="359.423828"/>
      <use xlink:href="#DejaVuSans-69" x="398.632812"/>
      <use xlink:href="#DejaVuSans-6f" x="426.416016"/>
      <use xlink:href="#DejaVuSans-6e" x="487.597656"/>
      <use xlink:href="#DejaVuSans-73" x="550.976562"/>
     </g>
    </g>
   </g>
   <g id="matplotlib.axis_4">
    <g id="ytick_9">
     <g id="line2d_29">
      <path d="M 434.334517 330.773812 
L 758.989062 330.773812 
" clip-path="url(#pe8851eaef9)" style="fill: none; stroke-dasharray: 2.96,1.28; stroke-dashoffset: 0; stroke: #b0b0b0; stroke-opacity: 0.25; stroke-width: 0.8"/>
     </g>
     <g id="line2d_30">
      <g>
       <use xlink:href="#mbfb2784c66" x="434.334517" y="330.773812" style="stroke: #000000; stroke-width: 0.8"/>
      </g>
     </g>
     <g id="text_23">
      <!-- 0.0 -->
      <g transform="translate(411.431392 334.573031)scale(0.1 -0.1)">
       <use xlink:href="#DejaVuSans-30"/>
       <use xlink:href="#DejaVuSans-2e" x="63.623047"/>
       <use xlink:href="#DejaVuSans-30" x="95.410156"/>
      </g>
     </g>
    </g>
    <g id="ytick_10">
     <g id="line2d_31">
      <path d="M 434.334517 270.12651 
L 758.989062 270.12651 
" clip-path="url(#pe8851eaef9)" style="fill: none; stroke-dasharray: 2.96,1.28; stroke-dashoffset: 0; stroke: #b0b0b0; stroke-opacity: 0.25; stroke-width: 0.8"/>
     </g>
     <g id="line2d_32">
      <g>
       <use xlink:href="#mbfb2784c66" x="434.334517" y="270.12651" style="stroke: #000000; stroke-width: 0.8"/>
      </g>
     </g>
     <g id="text_24">
      <!-- 0.2 -->
      <g transform="translate(411.431392 273.925728)scale(0.1 -0.1)">
       <use xlink:href="#DejaVuSans-30"/>
       <use xlink:href="#DejaVuSans-2e" x="63.623047"/>
       <use xlink:href="#DejaVuSans-32" x="95.410156"/>
      </g>
     </g>
    </g>
    <g id="ytick_11">
     <g id="line2d_33">
      <path d="M 434.334517 209.479207 
L 758.989062 209.479207 
" clip-path="url(#pe8851eaef9)" style="fill: none; stroke-dasharray: 2.96,1.28; stroke-dashoffset: 0; stroke: #b0b0b0; stroke-opacity: 0.25; stroke-width: 0.8"/>
     </g>
     <g id="line2d_34">
      <g>
       <use xlink:href="#mbfb2784c66" x="434.334517" y="209.479207" style="stroke: #000000; stroke-width: 0.8"/>
      </g>
     </g>
     <g id="text_25">
      <!-- 0.4 -->
      <g transform="translate(411.431392 213.278425)scale(0.1 -0.1)">
       <use xlink:href="#DejaVuSans-30"/>
       <use xlink:href="#DejaVuSans-2e" x="63.623047"/>
       <use xlink:href="#DejaVuSans-34" x="95.410156"/>
      </g>
     </g>
    </g>
    <g id="ytick_12">
     <g id="line2d_35">
      <path d="M 434.334517 148.831904 
L 758.989062 148.831904 
" clip-path="url(#pe8851eaef9)" style="fill: none; stroke-dasharray: 2.96,1.28; stroke-dashoffset: 0; stroke: #b0b0b0; stroke-opacity: 0.25; stroke-width: 0.8"/>
     </g>
     <g id="line2d_36">
      <g>
       <use xlink:href="#mbfb2784c66" x="434.334517" y="148.831904" style="stroke: #000000; stroke-width: 0.8"/>
      </g>
     </g>
     <g id="text_26">
      <!-- 0.6 -->
      <g transform="translate(411.431392 152.631123)scale(0.1 -0.1)">
       <use xlink:href="#DejaVuSans-30"/>
       <use xlink:href="#DejaVuSans-2e" x="63.623047"/>
       <use xlink:href="#DejaVuSans-36" x="95.410156"/>
      </g>
     </g>
    </g>
    <g id="ytick_13">
     <g id="line2d_37">
      <path d="M 434.334517 88.184601 
L 758.989062 88.184601 
" clip-path="url(#pe8851eaef9)" style="fill: none; stroke-dasharray: 2.96,1.28; stroke-dashoffset: 0; stroke: #b0b0b0; stroke-opacity: 0.25; stroke-width: 0.8"/>
     </g>
     <g id="line2d_38">
      <g>
       <use xlink:href="#mbfb2784c66" x="434.334517" y="88.184601" style="stroke: #000000; stroke-width: 0.8"/>
      </g>
     </g>
     <g id="text_27">
      <!-- 0.8 -->
      <g transform="translate(411.431392 91.98382)scale(0.1 -0.1)">
       <use xlink:href="#DejaVuSans-30"/>
       <use xlink:href="#DejaVuSans-2e" x="63.623047"/>
       <use xlink:href="#DejaVuSans-38" x="95.410156"/>
      </g>
     </g>
    </g>
    <g id="ytick_14">
     <g id="line2d_39">
      <path d="M 434.334517 27.537298 
L 758.989062 27.537298 
" clip-path="url(#pe8851eaef9)" style="fill: none; stroke-dasharray: 2.96,1.28; stroke-dashoffset: 0; stroke: #b0b0b0; stroke-opacity: 0.25; stroke-width: 0.8"/>
     </g>
     <g id="line2d_40">
      <g>
       <use xlink:href="#mbfb2784c66" x="434.334517" y="27.537298" style="stroke: #000000; stroke-width: 0.8"/>
      </g>
     </g>
     <g id="text_28">
      <!-- 1.0 -->
      <g transform="translate(411.431392 31.336517)scale(0.1 -0.1)">
       <use xlink:href="#DejaVuSans-31"/>
       <use xlink:href="#DejaVuSans-2e" x="63.623047"/>
       <use xlink:href="#DejaVuSans-30" x="95.410156"/>
      </g>
     </g>
    </g>
    <g id="text_29">
     <!-- Median throughput / Gbps -->
     <g transform="translate(405.143736 256.566703)rotate(-90)scale(0.11 -0.11)">
      <use xlink:href="#DejaVuSans-4d"/>
      <use xlink:href="#DejaVuSans-65" x="86.279297"/>
      <use xlink:href="#DejaVuSans-64" x="147.802734"/>
      <use xlink:href="#DejaVuSans-69" x="211.279297"/>
      <use xlink:href="#DejaVuSans-61" x="239.0625"/>
      <use xlink:href="#DejaVuSans-6e" x="300.341797"/>
      <use xlink:href="#DejaVuSans-20" x="363.720703"/>
      <use xlink:href="#DejaVuSans-74" x="395.507812"/>
      <use xlink:href="#DejaVuSans-68" x="434.716797"/>
      <use xlink:href="#DejaVuSans-72" x="498.095703"/>
      <use xlink:href="#DejaVuSans-6f" x="536.958984"/>
      <use xlink:href="#DejaVuSans-75" x="598.140625"/>
      <use xlink:href="#DejaVuSans-67" x="661.519531"/>
      <use xlink:href="#DejaVuSans-68" x="724.996094"/>
      <use xlink:href="#DejaVuSans-70" x="788.375"/>
      <use xlink:href="#DejaVuSans-75" x="851.851562"/>
      <use xlink:href="#DejaVuSans-74" x="915.230469"/>
      <use xlink:href="#DejaVuSans-20" x="954.439453"/>
      <use xlink:href="#DejaVuSans-2f" x="986.226562"/>
      <use xlink:href="#DejaVuSans-20" x="1019.917969"/>
      <use xlink:href="#DejaVuSans-47" x="1051.705078"/>
      <use xlink:href="#DejaVuSans-62" x="1129.195312"/>
      <use xlink:href="#DejaVuSans-70" x="1192.671875"/>
      <use xlink:href="#DejaVuSans-73" x="1256.148438"/>
     </g>
    </g>
   </g>
   <g id="line2d_41">
    <path d="M 449.091542 38.453812 
L 508.119641 53.312402 
L 586.823773 330.773812 
L 744.232038 330.773812 
" clip-path="url(#pe8851eaef9)" style="fill: none; stroke: #dd7f27; stroke-width: 1.5; stroke-linecap: square"/>
    <g clip-path="url(#pe8851eaef9)">
     <use xlink:href="#m3db72a105b" x="449.091542" y="38.453812" style="fill: #dd7f27; stroke: #dd7f27"/>
     <use xlink:href="#m3db72a105b" x="508.119641" y="53.312402" style="fill: #dd7f27; stroke: #dd7f27"/>
     <use xlink:href="#m3db72a105b" x="586.823773" y="330.773812" style="fill: #dd7f27; stroke: #dd7f27"/>
     <use xlink:href="#m3db72a105b" x="744.232038" y="330.773812" style="fill: #dd7f27; stroke: #dd7f27"/>
    </g>
   </g>
   <g id="line2d_42">
    <path d="M 449.091542 46.641198 
L 508.119641 50.280037 
L 586.823773 330.773812 
L 744.232038 330.773812 
" clip-path="url(#pe8851eaef9)" style="fill: none; stroke: #2f9e68; stroke-width: 1.5; stroke-linecap: square"/>
    <g clip-path="url(#pe8851eaef9)">
     <use xlink:href="#m296e6ce6d3" x="449.091542" y="46.641198" style="fill: #2f9e68; stroke: #2f9e68"/>
     <use xlink:href="#m296e6ce6d3" x="508.119641" y="50.280037" style="fill: #2f9e68; stroke: #2f9e68"/>
     <use xlink:href="#m296e6ce6d3" x="586.823773" y="330.773812" style="fill: #2f9e68; stroke: #2f9e68"/>
     <use xlink:href="#m296e6ce6d3" x="744.232038" y="330.773812" style="fill: #2f9e68; stroke: #2f9e68"/>
    </g>
   </g>
   <g id="patch_9">
    <path d="M 434.334517 345.389812 
L 434.334517 23.837812 
" style="fill: none; stroke: #000000; stroke-width: 0.8; stroke-linejoin: miter; stroke-linecap: square"/>
   </g>
   <g id="patch_10">
    <path d="M 758.989062 345.389812 
L 758.989062 23.837812 
" style="fill: none; stroke: #000000; stroke-width: 0.8; stroke-linejoin: miter; stroke-linecap: square"/>
   </g>
   <g id="patch_11">
    <path d="M 434.334517 345.389812 
L 758.989062 345.389812 
" style="fill: none; stroke: #000000; stroke-width: 0.8; stroke-linejoin: miter; stroke-linecap: square"/>
   </g>
   <g id="patch_12">
    <path d="M 434.334517 23.837812 
L 758.989062 23.837812 
" style="fill: none; stroke: #000000; stroke-width: 0.8; stroke-linejoin: miter; stroke-linecap: square"/>
   </g>
   <g id="text_30">
    <!-- 1GiB GridFlux RETR checksum impact -->
    <g transform="translate(463.98554 17.837812)scale(0.14 -0.14)">
     <defs>
      <path id="DejaVuSans-45" d="M 628 4666 
L 3578 4666 
L 3578 4134 
L 1259 4134 
L 1259 2753 
L 3481 2753 
L 3481 2222 
L 1259 2222 
L 1259 531 
L 3634 531 
L 3634 0 
L 628 0 
L 628 4666 
z
" transform="scale(0.015625)"/>
     </defs>
     <use xlink:href="#DejaVuSans-31"/>
     <use xlink:href="#DejaVuSans-47" x="63.623047"/>
     <use xlink:href="#DejaVuSans-69" x="141.113281"/>
     <use xlink:href="#DejaVuSans-42" x="168.896484"/>
     <use xlink:href="#DejaVuSans-20" x="237.5"/>
     <use xlink:href="#DejaVuSans-47" x="269.287109"/>
     <use xlink:href="#DejaVuSans-72" x="346.777344"/>
     <use xlink:href="#DejaVuSans-69" x="387.890625"/>
     <use xlink:href="#DejaVuSans-64" x="415.673828"/>
     <use xlink:href="#DejaVuSans-46" x="479.150391"/>
     <use xlink:href="#DejaVuSans-6c" x="536.669922"/>
     <use xlink:href="#DejaVuSans-75" x="564.453125"/>
     <use xlink:href="#DejaVuSans-78" x="627.832031"/>
     <use xlink:href="#DejaVuSans-20" x="687.011719"/>
     <use xlink:href="#DejaVuSans-52" x="718.798828"/>
     <use xlink:href="#DejaVuSans-45" x="788.28125"/>
     <use xlink:href="#DejaVuSans-54" x="851.464844"/>
     <use xlink:href="#DejaVuSans-52" x="912.548828"/>
     <use xlink:href="#DejaVuSans-20" x="982.03125"/>
     <use xlink:href="#DejaVuSans-63" x="1013.818359"/>
     <use xlink:href="#DejaVuSans-68" x="1068.798828"/>
     <use xlink:href="#DejaVuSans-65" x="1132.177734"/>
     <use xlink:href="#DejaVuSans-63" x="1193.701172"/>
     <use xlink:href="#DejaVuSans-6b" x="1248.681641"/>
     <use xlink:href="#DejaVuSans-73" x="1306.591797"/>
     <use xlink:href="#DejaVuSans-75" x="1358.691406"/>
     <use xlink:href="#DejaVuSans-6d" x="1422.070312"/>
     <use xlink:href="#DejaVuSans-20" x="1519.482422"/>
     <use xlink:href="#DejaVuSans-69" x="1551.269531"/>
     <use xlink:href="#DejaVuSans-6d" x="1579.052734"/>
     <use xlink:href="#DejaVuSans-70" x="1676.464844"/>
     <use xlink:href="#DejaVuSans-61" x="1739.941406"/>
     <use xlink:href="#DejaVuSans-63" x="1801.220703"/>
     <use xlink:href="#DejaVuSans-74" x="1856.201172"/>
    </g>
   </g>
   <g id="legend_2">
    <g id="patch_13">
     <path d="M 641.298437 61.194062 
L 751.989062 61.194062 
Q 753.989062 61.194062 753.989062 59.194062 
L 753.989062 30.837812 
Q 753.989062 28.837812 751.989062 28.837812 
L 641.298437 28.837812 
Q 639.298437 28.837812 639.298437 30.837812 
L 639.298437 59.194062 
Q 639.298437 61.194062 641.298437 61.194062 
z
" style="fill: #f8f8f6; opacity: 0.8; stroke: #cccccc; stroke-linejoin: miter"/>
    </g>
    <g id="line2d_43">
     <path d="M 643.298437 36.93625 
L 653.298437 36.93625 
L 663.298437 36.93625 
" style="fill: none; stroke: #dd7f27; stroke-width: 1.5; stroke-linecap: square"/>
     <g>
      <use xlink:href="#m3db72a105b" x="653.298437" y="36.93625" style="fill: #dd7f27; stroke: #dd7f27"/>
     </g>
    </g>
    <g id="text_31">
     <!-- checksum none -->
     <g transform="translate(671.298437 40.43625)scale(0.1 -0.1)">
      <use xlink:href="#DejaVuSans-63"/>
      <use xlink:href="#DejaVuSans-68" x="54.980469"/>
      <use xlink:href="#DejaVuSans-65" x="118.359375"/>
      <use xlink:href="#DejaVuSans-63" x="179.882812"/>
      <use xlink:href="#DejaVuSans-6b" x="234.863281"/>
      <use xlink:href="#DejaVuSans-73" x="292.773438"/>
      <use xlink:href="#DejaVuSans-75" x="344.873047"/>
      <use xlink:href="#DejaVuSans-6d" x="408.251953"/>
      <use xlink:href="#DejaVuSans-20" x="505.664062"/>
      <use xlink:href="#DejaVuSans-6e" x="537.451172"/>
      <use xlink:href="#DejaVuSans-6f" x="600.830078"/>
      <use xlink:href="#DejaVuSans-6e" x="662.011719"/>
      <use xlink:href="#DejaVuSans-65" x="725.390625"/>
     </g>
    </g>
    <g id="line2d_44">
     <path d="M 643.298437 51.614375 
L 653.298437 51.614375 
L 663.298437 51.614375 
" style="fill: none; stroke: #2f9e68; stroke-width: 1.5; stroke-linecap: square"/>
     <g>
      <use xlink:href="#m296e6ce6d3" x="653.298437" y="51.614375" style="fill: #2f9e68; stroke: #2f9e68"/>
     </g>
    </g>
    <g id="text_32">
     <!-- crc32c -->
     <g transform="translate(671.298437 55.114375)scale(0.1 -0.1)">
      <use xlink:href="#DejaVuSans-63"/>
      <use xlink:href="#DejaVuSans-72" x="54.980469"/>
      <use xlink:href="#DejaVuSans-63" x="93.84375"/>
      <use xlink:href="#DejaVuSans-33" x="148.824219"/>
      <use xlink:href="#DejaVuSans-32" x="212.447266"/>
      <use xlink:href="#DejaVuSans-63" x="276.070312"/>
     </g>
    </g>
   </g>
  </g>
  <g id="text_33">
   <!-- The crc32c curve includes chunk checksum plus manifest/recovery semantics. -->
   <g transform="translate(193.750625 399.677812)scale(0.1 -0.1)">
    <defs>
     <path id="DejaVuSans-76" d="M 191 3500 
L 800 3500 
L 1894 563 
L 2988 3500 
L 3597 3500 
L 2284 0 
L 1503 0 
L 191 3500 
z
" transform="scale(0.015625)"/>
     <path id="DejaVuSans-66" d="M 2375 4863 
L 2375 4384 
L 1825 4384 
Q 1516 4384 1395 4259 
Q 1275 4134 1275 3809 
L 1275 3500 
L 2222 3500 
L 2222 3053 
L 1275 3053 
L 1275 0 
L 697 0 
L 697 3053 
L 147 3053 
L 147 3500 
L 697 3500 
L 697 3744 
Q 697 4328 969 4595 
Q 1241 4863 1831 4863 
L 2375 4863 
z
" transform="scale(0.015625)"/>
     <path id="DejaVuSans-79" d="M 2059 -325 
Q 1816 -950 1584 -1140 
Q 1353 -1331 966 -1331 
L 506 -1331 
L 506 -850 
L 844 -850 
Q 1081 -850 1212 -737 
Q 1344 -625 1503 -206 
L 1606 56 
L 191 3500 
L 800 3500 
L 1894 763 
L 2988 3500 
L 3597 3500 
L 2059 -325 
z
" transform="scale(0.015625)"/>
    </defs>
    <use xlink:href="#DejaVuSans-54"/>
    <use xlink:href="#DejaVuSans-68" x="61.083984"/>
    <use xlink:href="#DejaVuSans-65" x="124.462891"/>
    <use xlink:href="#DejaVuSans-20" x="185.986328"/>
    <use xlink:href="#DejaVuSans-63" x="217.773438"/>
    <use xlink:href="#DejaVuSans-72" x="272.753906"/>
    <use xlink:href="#DejaVuSans-63" x="311.617188"/>
    <use xlink:href="#DejaVuSans-33" x="366.597656"/>
    <use xlink:href="#DejaVuSans-32" x="430.220703"/>
    <use xlink:href="#DejaVuSans-63" x="493.84375"/>
    <use xlink:href="#DejaVuSans-20" x="548.824219"/>
    <use xlink:href="#DejaVuSans-63" x="580.611328"/>
    <use xlink:href="#DejaVuSans-75" x="635.591797"/>
    <use xlink:href="#DejaVuSans-72" x="698.970703"/>
    <use xlink:href="#DejaVuSans-76" x="740.083984"/>
    <use xlink:href="#DejaVuSans-65" x="799.263672"/>
    <use xlink:href="#DejaVuSans-20" x="860.787109"/>
    <use xlink:href="#DejaVuSans-69" x="892.574219"/>
    <use xlink:href="#DejaVuSans-6e" x="920.357422"/>
    <use xlink:href="#DejaVuSans-63" x="983.736328"/>
    <use xlink:href="#DejaVuSans-6c" x="1038.716797"/>
    <use xlink:href="#DejaVuSans-75" x="1066.5"/>
    <use xlink:href="#DejaVuSans-64" x="1129.878906"/>
    <use xlink:href="#DejaVuSans-65" x="1193.355469"/>
    <use xlink:href="#DejaVuSans-73" x="1254.878906"/>
    <use xlink:href="#DejaVuSans-20" x="1306.978516"/>
    <use xlink:href="#DejaVuSans-63" x="1338.765625"/>
    <use xlink:href="#DejaVuSans-68" x="1393.746094"/>
    <use xlink:href="#DejaVuSans-75" x="1457.125"/>
    <use xlink:href="#DejaVuSans-6e" x="1520.503906"/>
    <use xlink:href="#DejaVuSans-6b" x="1583.882812"/>
    <use xlink:href="#DejaVuSans-20" x="1641.792969"/>
    <use xlink:href="#DejaVuSans-63" x="1673.580078"/>
    <use xlink:href="#DejaVuSans-68" x="1728.560547"/>
    <use xlink:href="#DejaVuSans-65" x="1791.939453"/>
    <use xlink:href="#DejaVuSans-63" x="1853.462891"/>
    <use xlink:href="#DejaVuSans-6b" x="1908.443359"/>
    <use xlink:href="#DejaVuSans-73" x="1966.353516"/>
    <use xlink:href="#DejaVuSans-75" x="2018.453125"/>
    <use xlink:href="#DejaVuSans-6d" x="2081.832031"/>
    <use xlink:href="#DejaVuSans-20" x="2179.244141"/>
    <use xlink:href="#DejaVuSans-70" x="2211.03125"/>
    <use xlink:href="#DejaVuSans-6c" x="2274.507812"/>
    <use xlink:href="#DejaVuSans-75" x="2302.291016"/>
    <use xlink:href="#DejaVuSans-73" x="2365.669922"/>
    <use xlink:href="#DejaVuSans-20" x="2417.769531"/>
    <use xlink:href="#DejaVuSans-6d" x="2449.556641"/>
    <use xlink:href="#DejaVuSans-61" x="2546.96875"/>
    <use xlink:href="#DejaVuSans-6e" x="2608.248047"/>
    <use xlink:href="#DejaVuSans-69" x="2671.626953"/>
    <use xlink:href="#DejaVuSans-66" x="2699.410156"/>
    <use xlink:href="#DejaVuSans-65" x="2734.615234"/>
    <use xlink:href="#DejaVuSans-73" x="2796.138672"/>
    <use xlink:href="#DejaVuSans-74" x="2848.238281"/>
    <use xlink:href="#DejaVuSans-2f" x="2887.447266"/>
    <use xlink:href="#DejaVuSans-72" x="2921.138672"/>
    <use xlink:href="#DejaVuSans-65" x="2960.001953"/>
    <use xlink:href="#DejaVuSans-63" x="3021.525391"/>
    <use xlink:href="#DejaVuSans-6f" x="3076.505859"/>
    <use xlink:href="#DejaVuSans-76" x="3137.6875"/>
    <use xlink:href="#DejaVuSans-65" x="3196.867188"/>
    <use xlink:href="#DejaVuSans-72" x="3258.390625"/>
    <use xlink:href="#DejaVuSans-79" x="3299.503906"/>
    <use xlink:href="#DejaVuSans-20" x="3358.683594"/>
    <use xlink:href="#DejaVuSans-73" x="3390.470703"/>
    <use xlink:href="#DejaVuSans-65" x="3442.570312"/>
    <use xlink:href="#DejaVuSans-6d" x="3504.09375"/>
    <use xlink:href="#DejaVuSans-61" x="3601.505859"/>
    <use xlink:href="#DejaVuSans-6e" x="3662.785156"/>
    <use xlink:href="#DejaVuSans-74" x="3726.164062"/>
    <use xlink:href="#DejaVuSans-69" x="3765.373047"/>
    <use xlink:href="#DejaVuSans-63" x="3793.15625"/>
    <use xlink:href="#DejaVuSans-73" x="3848.136719"/>
    <use xlink:href="#DejaVuSans-2e" x="3900.236328"/>
   </g>
  </g>
 </g>
 <defs>
  <clipPath id="p7ca2b93582">
   <rect x="44.749063" y="23.837812" width="324.654545" height="321.552"/>
  </clipPath>
  <clipPath id="pe8851eaef9">
   <rect x="434.334517" y="23.837812" width="324.654545" height="321.552"/>
  </clipPath>
 </defs>
</svg>
